<?xml version="1.0" encoding="utf-8"?>
<!-- Uploaded to: SVG Repo, www.svgrepo.com, Generator: SVG Repo Mixer Tools -->
<svg width="800px" height="800px" viewBox="0 0 48 48" xmlns="http://www.w3.org/2000/svg">
    <title>ONE-xicons</title>
    <path d="M24,48A24,24,0,1,1,48,24,24,24,0,0,1,24,48ZM24,1A23,23,0,1,0,47,24,23,23,0,0,0,24,1Z" stroke="red" stroke-width="2"/>
    <path d="M18.7,29.8A0.5,0.5,0,0,1,18.34,29L29,18.34a0.5,0.5,0,0,1,.71.71L19.05,29.66A0.5,0.5,0,0,1,18.7,29.8Z" stroke="red" stroke-width="2"/>
    <path d="M29.3,29.8A0.5,0.5,0,0,1,29,29.66L18.34,19A0.5,0.5,0,0,1,19,18.34L29.66,29A0.5,0.5,0,0,1,29.3,29.8Z" stroke="red" stroke-width="2"/>
    <rect width="48" height="48" fill="none"/>
</svg>
